<?xml version="1.0" standalone="no"?>
<!DOCTYPE svg PUBLIC "-//W3C//DTD SVG 20010904//EN"
 "http://www.w3.org/TR/2001/REC-SVG-20010904/DTD/svg10.dtd">
<svg version="1.0" xmlns="http://www.w3.org/2000/svg"
 width="512.000000pt" height="512.000000pt" viewBox="0 0 512.000000 512.000000"
 preserveAspectRatio="xMidYMid meet">

<g transform="translate(0.000000,512.000000) scale(0.100000,-0.100000)"
fill="#000000" stroke="none">
<path d="M775 5106 c-96 -30 -172 -96 -214 -186 l-26 -55 -3 -332 -3 -333 25
-25 c32 -32 70 -32 101 0 l25 24 0 306 c0 253 3 312 15 343 21 49 52 81 100
103 38 18 95 19 1257 19 l1217 0 3 -482 c3 -476 3 -484 25 -524 34 -63 66 -97
125 -129 l53 -30 483 -3 482 -3 0 -1268 0 -1268 23 -21 c33 -31 80 -29 106 4
l21 27 0 1316 0 1316 -608 607 -607 608 -1280 -1 c-1003 0 -1289 -3 -1320 -13z
m3140 -1144 c-339 -2 -400 0 -425 13 -59 31 -60 35 -60 472 l0 398 440 -440
440 -440 -395 -3z"/>
<path d="M1564 4731 c-141 -23 -260 -85 -365 -191 -199 -200 -244 -483 -118
-740 58 -118 170 -230 290 -289 317 -156 696 -34 858 278 53 103 73 185 73
301 0 156 -44 281 -143 406 -82 104 -208 186 -335 219 -73 19 -194 26 -260 16z
m238 -171 c207 -64 348 -254 348 -470 0 -55 -22 -175 -34 -188 -2 -1 -19 11
-37 28 -43 40 -103 81 -157 109 l-42 21 22 43 c33 63 31 165 -4 233 -49 93
-137 147 -242 146 -73 -1 -123 -20 -178 -70 -83 -75 -112 -203 -68 -301 24
-51 25 -61 7 -61 -19 0 -126 -70 -175 -115 l-40 -36 -17 52 c-24 72 -23 206 3
286 49 155 185 285 342 329 71 20 198 17 272 -6z"/>
<path d="M554 3885 l-24 -24 2 -1803 3 -1803 28 -57 c35 -72 93 -130 165 -165
l57 -28 1775 0 1775 0 57 28 c72 35 130 93 165 165 l28 57 3 330 c3 354 2 366
-48 383 -32 11 -84 -7 -94 -33 -3 -9 -6 -155 -6 -323 0 -277 -2 -311 -19 -347
-22 -48 -54 -79 -103 -100 -33 -13 -227 -15 -1760 -15 -1654 0 -1725 1 -1763
19 -48 22 -79 54 -100 103 -13 33 -15 233 -15 1813 l0 1776 -25 24 c-31 32
-69 32 -101 0z"/>
<path d="M1061 2969 c-69 -28 -67 -112 3 -139 38 -14 2954 -14 2992 0 72 28
73 114 3 139 -42 14 -2962 14 -2998 0z"/>
<path d="M1035 2275 c-14 -13 -25 -36 -25 -50 0 -14 11 -37 25 -50 l24 -25
1505 0 1505 0 20 26 c28 35 26 69 -4 99 l-24 25 -1501 0 -1501 0 -24 -25z"/>
<path d="M1031 1594 c-26 -33 -27 -65 -2 -95 l19 -24 1506 -3 1507 -2 24 24
c30 31 32 65 4 100 l-20 26 -1509 0 -1509 0 -20 -26z"/>
<path d="M1055 939 c-49 -27 -58 -70 -24 -113 l20 -26 773 0 c736 0 774 1 789
18 24 27 22 85 -4 108 -20 18 -49 19 -778 21 -537 2 -762 -1 -776 -8z"/>
</g>
</svg>
